# xmcd
#
# Track frame offsets:
#	150
#	20852
#	33374
#	44280
#	55668
#	68374
#	89558
#	102995
#	122795
#	159967
#	181290
#	197046
#	214143
#	234297
#	263218
#	276230
#
# Disc length: 3855 seconds
#
# Revision: 1
# Processed by: cddbd v1.5.2PL0 Copyright (c) Steve Scherf et al.
# Submitted via: EZCDAudioConverter 7.0.5.1
#
DISCID=dc0f0d10
DTITLE=1 RECOPILACIÓ BLUES - 10è Festival de Blues de Barcelona
DYEAR=2012
DGENRE=Blues
TTITLE0=Suitcase Brothers - Careless Love
TTITLE1=Bernat Font Trio - Steeplechase
TTITLE2=Big Dani Pérez R&B Band - Swing and Rocket
TTITLE3=Chino - I'm on the Road Again
TTITLE4=Mambo Jambo - Work Song
TTITLE5=Blas Picón and The Junk Express - Can't Find My Way Back Home
TTITLE6=Txus Blues and José Bluesfingers - Harmónica Lewinsky
TTITLE7=Barcelona Big Blues Band - Lemon Blue
TTITLE8=David Giorcelli - Marmy's
TTITLE9=Tota Blues Band - Cuestión de Divorcio
TTITLE10=The Big Jamboree - Endless Romance
TTITLE11=Midnight Rockets - She's Tuff
TTITLE12=Big Mama and The Crazy Blues Band - You Don't Miss Your Water
TTITLE13=Joan Pau Comellas - Keep Walking
TTITLE14=Down Home - Once Again
TTITLE15=Lazy Jumpers - Living in My Car
EXTD=
EXTT0=
EXTT1=
EXTT2=
EXTT3=
EXTT4=
EXTT5=
EXTT6=
EXTT7=
EXTT8=
EXTT9=
EXTT10=
EXTT11=
EXTT12=
EXTT13=
EXTT14=
EXTT15=
PLAYORDER=
